# 3ds Max Wavefront OBJ Exporter v0.94b - (c)2007 guruware
# File Created: 20.05.2012 19:07:08

mtllib ruskiegrensOBJ.mtl

#
# object RGD33_HE
#

v  -0.1631 -0.0630 1.0585
v  -0.1636 -0.0596 1.2488
v  -0.1706 -0.0815 1.0588
v  -0.1711 -0.0781 1.2491
v  -0.1915 -0.0850 1.0588
v  -0.1920 -0.0817 1.2491
v  -0.2047 -0.0701 1.0585
v  -0.2052 -0.0667 1.2488
v  -0.1976 -0.0490 1.0581
v  -0.1981 -0.0456 1.2485
v  -0.1768 -0.0454 1.0581
v  -0.1773 -0.0421 1.2485
v  -0.1342 -0.0548 1.2376
v  -0.1342 -0.0546 1.2455
v  -0.1513 -0.1004 1.2383
v  -0.1513 -0.1004 1.2462
v  -0.1996 -0.1086 1.2383
v  -0.1996 -0.1086 1.2462
v  -0.2309 -0.0712 1.2376
v  -0.2309 -0.0711 1.2455
v  -0.2136 -0.0263 1.2369
v  -0.2136 -0.0262 1.2448
v  -0.1653 -0.0181 1.2369
v  -0.1653 -0.0180 1.2448
v  -0.1409 -0.0559 1.2427
v  -0.1408 -0.0556 1.3646
v  -0.1555 -0.0955 1.2433
v  -0.1555 -0.0952 1.3652
v  -0.1972 -0.1026 1.2433
v  -0.1972 -0.1023 1.3652
v  -0.2242 -0.0701 1.2427
v  -0.2242 -0.0698 1.3646
v  -0.2095 -0.0305 1.2421
v  -0.2095 -0.0302 1.3640
v  -0.1678 -0.0234 1.2421
v  -0.1678 -0.0231 1.3639
# 36 vertices

vn 0.9906 0.1370 0.0001
vn 0.9904 0.1385 0.0001
vn 0.6255 -0.7801 0.0155
vn 0.9904 0.1385 0.0001
vn 0.6261 -0.7796 0.0154
vn 0.6255 -0.7801 0.0155
vn 0.6255 -0.7801 0.0155
vn 0.6261 -0.7796 0.0154
vn -0.3331 -0.9428 0.0159
vn 0.6255 -0.7801 0.0155
vn -0.3331 -0.9428 0.0159
vn -0.3323 -0.9430 0.0159
vn -0.3323 -0.9430 0.0159
vn -0.3331 -0.9428 0.0159
vn -0.9802 -0.1981 0.0010
vn -0.3331 -0.9428 0.0159
vn -0.9805 -0.1966 0.0010
vn -0.9802 -0.1981 0.0010
vn -0.9802 -0.1981 0.0010
vn -0.9805 -0.1966 0.0010
vn -0.6488 0.7608 -0.0152
vn -0.9802 -0.1981 0.0010
vn -0.6488 0.7608 -0.0152
vn -0.6493 0.7604 -0.0152
vn -0.6493 0.7604 -0.0152
vn -0.6488 0.7608 -0.0152
vn 0.3614 0.9323 -0.0157
vn -0.6488 0.7608 -0.0152
vn 0.3608 0.9325 -0.0157
vn 0.3614 0.9323 -0.0157
vn 0.3614 0.9323 -0.0157
vn 0.3608 0.9325 -0.0157
vn 0.9904 0.1385 0.0001
vn 0.3614 0.9323 -0.0157
vn 0.9904 0.1385 0.0001
vn 0.9906 0.1370 0.0001
vn -0.0024 0.0164 0.9999
vn -0.0024 0.0164 0.9999
vn -0.0025 0.0163 0.9999
vn -0.0024 0.0164 0.9999
vn -0.0023 0.0164 0.9999
vn -0.0024 0.0164 0.9999
vn -0.0024 0.0164 0.9999
vn -0.0023 0.0164 0.9999
vn -0.0023 0.0164 0.9999
vn -0.0023 0.0164 0.9999
vn -0.0021 0.0164 0.9999
vn -0.0023 0.0164 0.9999
vn 0.0026 -0.0175 -0.9998
vn 0.0025 -0.0175 -0.9998
vn 0.0025 -0.0175 -0.9998
vn 0.0025 -0.0175 -0.9998
vn 0.0025 -0.0175 -0.9998
vn 0.0025 -0.0175 -0.9998
vn 0.0025 -0.0175 -0.9998
vn 0.0025 -0.0175 -0.9998
vn 0.0025 -0.0175 -0.9998
vn 0.0025 -0.0175 -0.9998
vn 0.0024 -0.0175 -0.9998
vn 0.0025 -0.0175 -0.9998
vn 0.9853 0.1710 -0.0005
vn 0.9851 0.1717 -0.0007
vn 0.6384 -0.7697 0.0058
vn 0.9851 0.1717 -0.0007
vn 0.6358 -0.7718 0.0055
vn 0.6384 -0.7697 0.0058
vn 0.6384 -0.7697 0.0058
vn 0.6358 -0.7718 0.0055
vn -0.3445 -0.9388 0.0063
vn 0.6384 -0.7697 0.0058
vn -0.3445 -0.9388 0.0063
vn -0.3476 -0.9376 0.0059
vn -0.3476 -0.9376 0.0059
vn -0.3445 -0.9388 0.0063
vn -0.9865 -0.1638 0.0002
vn -0.3445 -0.9388 0.0063
vn -0.9866 -0.1631 0.0004
vn -0.9865 -0.1638 0.0002
vn -0.9865 -0.1638 0.0002
vn -0.9866 -0.1631 0.0004
vn -0.6344 0.7729 -0.0114
vn -0.9865 -0.1638 0.0002
vn -0.6344 0.7729 -0.0114
vn -0.6335 0.7737 -0.0113
vn -0.6335 0.7737 -0.0113
vn -0.6344 0.7729 -0.0114
vn 0.3419 0.9397 -0.0119
vn -0.6344 0.7729 -0.0114
vn 0.3430 0.9393 -0.0117
vn 0.3419 0.9397 -0.0119
vn 0.3419 0.9397 -0.0119
vn 0.3430 0.9393 -0.0117
vn 0.9851 0.1717 -0.0007
vn 0.3419 0.9397 -0.0119
vn 0.9851 0.1717 -0.0007
vn 0.9853 0.1710 -0.0005
vn -0.0023 0.0165 0.9999
vn -0.0023 0.0165 0.9999
vn -0.0023 0.0165 0.9999
vn -0.0024 0.0165 0.9999
vn -0.0024 0.0165 0.9999
vn -0.0024 0.0165 0.9999
vn -0.0023 0.0165 0.9999
vn -0.0024 0.0165 0.9999
vn -0.0023 0.0165 0.9999
vn -0.0023 0.0165 0.9999
vn -0.0024 0.0165 0.9999
vn -0.0024 0.0165 0.9999
vn 0.0025 -0.0172 -0.9998
vn 0.0025 -0.0172 -0.9998
vn 0.0025 -0.0172 -0.9998
vn 0.0025 -0.0172 -0.9998
vn 0.0025 -0.0172 -0.9998
vn 0.0025 -0.0172 -0.9998
vn 0.0025 -0.0172 -0.9998
vn 0.0025 -0.0172 -0.9998
vn 0.0025 -0.0172 -0.9998
vn 0.0025 -0.0172 -0.9998
vn 0.0025 -0.0172 -0.9998
vn 0.0025 -0.0172 -0.9998
vn 0.9851 0.1723 -0.0005
vn 0.9866 0.1630 -0.0004
vn 0.6399 -0.7685 0.0019
vn 0.9866 0.1630 -0.0004
vn 0.6363 -0.7715 0.0019
vn 0.6399 -0.7685 0.0019
vn 0.6399 -0.7685 0.0019
vn 0.6363 -0.7715 0.0019
vn -0.3454 -0.9384 0.0023
vn 0.6399 -0.7685 0.0019
vn -0.3454 -0.9384 0.0023
vn -0.3498 -0.9368 0.0023
vn -0.3498 -0.9368 0.0023
vn -0.3454 -0.9384 0.0023
vn -0.9866 -0.1631 0.0004
vn -0.3454 -0.9384 0.0023
vn -0.9850 -0.1724 0.0005
vn -0.9866 -0.1631 0.0004
vn -0.9866 -0.1631 0.0004
vn -0.9850 -0.1724 0.0005
vn -0.6399 0.7684 -0.0019
vn -0.9866 -0.1631 0.0004
vn -0.6399 0.7684 -0.0019
vn -0.6363 0.7714 -0.0019
vn -0.6363 0.7714 -0.0019
vn -0.6399 0.7684 -0.0019
vn 0.3455 0.9384 -0.0023
vn -0.6399 0.7684 -0.0019
vn 0.3499 0.9368 -0.0023
vn 0.3455 0.9384 -0.0023
vn 0.3455 0.9384 -0.0023
vn 0.3499 0.9368 -0.0023
vn 0.9866 0.1630 -0.0004
vn 0.3455 0.9384 -0.0023
vn 0.9866 0.1630 -0.0004
vn 0.9851 0.1723 -0.0005
vn -0.0025 0.0172 0.9998
vn -0.0025 0.0172 0.9998
vn -0.0025 0.0172 0.9998
vn -0.0025 0.0172 0.9998
vn -0.0025 0.0172 0.9998
vn -0.0025 0.0172 0.9998
vn -0.0025 0.0172 0.9998
vn -0.0025 0.0172 0.9998
vn -0.0025 0.0172 0.9998
vn -0.0025 0.0172 0.9998
vn -0.0025 0.0172 0.9998
vn -0.0025 0.0172 0.9998
# 168 vertex normals

vt 0.0375 0.9571 0.0000
vt 0.0364 0.4432 0.0000
vt 0.0782 0.9571 0.0000
vt 0.0770 0.4432 0.0000
vt 0.1169 0.9563 0.0000
vt 0.1158 0.4435 0.0000
vt 0.1548 0.9563 0.0000
vt 0.1537 0.4435 0.0000
vt 0.1987 0.6643 0.0000
vt 0.2561 0.5673 0.0000
vt 0.3682 0.5673 0.0000
vt 0.4248 0.6639 0.0000
vt 0.3682 0.7621 0.0000
vt 0.2561 0.7621 0.0000
vt 0.1648 0.4045 0.0000
vt 0.1648 0.3745 0.0000
vt 0.0339 0.4045 0.0000
vt 0.0339 0.3745 0.0000
vt 0.2646 -0.3380 0.0000
vt 0.2886 -0.3785 0.0000
vt 0.3352 -0.3785 0.0000
vt 0.3588 -0.3382 0.0000
vt 0.3352 -0.2973 0.0000
vt 0.2886 -0.2973 0.0000
vt 0.1987 0.6643 0.0000
vt 0.2561 0.5673 0.0000
vt 0.3682 0.5673 0.0000
vt 0.4248 0.6639 0.0000
vt 0.3682 0.7621 0.0000
vt 0.2561 0.7621 0.0000
vt 0.1648 0.4045 0.0000
vt 0.1648 0.0313 0.0000
vt 0.0339 0.4045 0.0000
vt 0.0339 0.0313 0.0000
vt 0.1987 0.6643 0.0000
vt 0.2561 0.5673 0.0000
vt 0.3682 0.5673 0.0000
vt 0.4248 0.6639 0.0000
vt 0.3682 0.7621 0.0000
vt 0.2561 0.7621 0.0000
# 40 texture coords

g RGD33_HE
usemtl Standard_1
s 1
f 1/1/1 2/2/2 3/3/3 
f 2/2/4 4/4/5 3/3/6 
f 3/3/7 4/4/8 6/6/9 
f 3/3/10 6/6/11 5/5/12 
f 5/5/13 6/6/14 7/7/15 
f 6/6/16 8/8/17 7/7/18 
f 7/7/19 8/8/20 10/6/21 
f 7/7/22 10/6/23 9/5/24 
f 9/5/25 10/6/26 11/7/27 
f 10/6/28 12/8/29 11/7/30 
f 11/5/31 12/6/32 2/8/33 
f 11/5/34 2/8/35 1/7/36 
s 4
f 12/14/37 4/10/38 2/9/39 
f 12/14/40 6/11/41 4/10/42 
f 12/14/43 10/13/44 6/11/45 
f 10/13/46 8/12/47 6/11/48 
f 1/19/49 3/24/50 11/20/51 
f 3/24/52 5/23/53 11/20/54 
f 5/23/55 9/21/56 11/20/57 
f 5/23/58 7/22/59 9/21/60 
s 1
f 13/15/61 14/16/62 15/17/63 
f 14/16/64 16/18/65 15/17/66 
f 15/17/67 16/18/68 18/16/69 
f 15/17/70 18/16/71 17/15/72 
f 17/15/73 18/16/74 19/17/75 
f 18/16/76 20/18/77 19/17/78 
f 19/17/79 20/18/80 22/16/81 
f 19/17/82 22/16/83 21/15/84 
f 21/15/85 22/16/86 23/17/87 
f 22/16/88 24/18/89 23/17/90 
f 23/17/91 24/18/92 14/16/93 
f 23/17/94 14/16/95 13/15/96 
s 4
f 24/14/97 16/10/98 14/9/99 
f 22/13/100 20/12/101 18/11/102 
f 24/14/103 18/11/104 16/10/105 
f 24/14/106 22/13/107 18/11/108 
f 13/35/109 15/40/110 23/36/111 
f 17/39/112 19/38/113 21/37/114 
f 15/40/115 17/39/116 23/36/117 
f 17/39/118 21/37/119 23/36/120 
s 1
f 25/31/121 26/32/122 27/33/123 
f 26/32/124 28/34/125 27/33/126 
f 27/33/127 28/34/128 30/32/129 
f 27/33/130 30/32/131 29/31/132 
f 29/31/133 30/32/134 31/33/135 
f 30/32/136 32/34/137 31/33/138 
f 31/33/139 32/34/140 34/32/141 
f 31/33/142 34/32/143 33/31/144 
f 33/31/145 34/32/146 35/33/147 
f 34/32/148 36/34/149 35/33/150 
f 35/33/151 36/34/152 26/32/153 
f 35/33/154 26/32/155 25/31/156 
s 4
f 36/30/157 28/26/158 26/25/159 
f 34/29/160 32/28/161 30/27/162 
f 36/30/163 30/27/164 28/26/165 
f 36/30/166 34/29/167 30/27/168 
# 56 faces

#
# object RGD33_Frag_Sleeve
#

v  -0.1355 -0.0553 1.2429
v  -0.1358 -0.0532 1.3617
v  -0.1521 -0.0996 1.2436
v  -0.1524 -0.0975 1.3623
v  -0.1991 -0.1075 1.2436
v  -0.1994 -0.1054 1.3624
v  -0.2294 -0.0713 1.2430
v  -0.2297 -0.0692 1.3617
v  -0.2128 -0.0271 1.2423
v  -0.2131 -0.0250 1.3610
v  -0.1658 -0.0191 1.2422
v  -0.1661 -0.0170 1.3610
# 12 vertices

vn 0.9859 0.1674 -0.0004
vn 0.9858 0.1681 -0.0004
vn 0.6363 -0.7713 0.0153
vn 0.9858 0.1681 -0.0004
vn 0.6366 -0.7711 0.0153
vn 0.6363 -0.7713 0.0153
vn 0.6363 -0.7713 0.0153
vn 0.6366 -0.7711 0.0153
vn -0.3459 -0.9382 0.0157
vn 0.6363 -0.7713 0.0153
vn -0.3459 -0.9382 0.0157
vn -0.3455 -0.9383 0.0157
vn -0.3455 -0.9383 0.0157
vn -0.3459 -0.9382 0.0157
vn -0.9858 -0.1680 0.0005
vn -0.3459 -0.9382 0.0157
vn -0.9859 -0.1673 0.0004
vn -0.9858 -0.1680 0.0005
vn -0.9858 -0.1680 0.0005
vn -0.9859 -0.1673 0.0004
vn -0.6363 0.7713 -0.0152
vn -0.9858 -0.1680 0.0005
vn -0.6363 0.7713 -0.0152
vn -0.6366 0.7711 -0.0152
vn -0.6366 0.7711 -0.0152
vn -0.6363 0.7713 -0.0152
vn 0.3458 0.9382 -0.0157
vn -0.6363 0.7713 -0.0152
vn 0.3455 0.9383 -0.0157
vn 0.3458 0.9382 -0.0157
vn 0.3458 0.9382 -0.0157
vn 0.3455 0.9383 -0.0157
vn 0.9858 0.1681 -0.0004
vn 0.3458 0.9382 -0.0157
vn 0.9858 0.1681 -0.0004
vn 0.9859 0.1674 -0.0004
vn -0.0023 0.0163 0.9999
vn -0.0023 0.0163 0.9999
vn -0.0023 0.0163 0.9999
vn -0.0023 0.0163 0.9999
vn -0.0023 0.0163 0.9999
vn -0.0023 0.0163 0.9999
vn -0.0023 0.0163 0.9999
vn -0.0023 0.0163 0.9999
vn -0.0023 0.0163 0.9999
vn -0.0023 0.0163 0.9999
vn -0.0023 0.0163 0.9999
vn -0.0023 0.0163 0.9999
vn 0.0024 -0.0166 -0.9999
vn 0.0024 -0.0166 -0.9999
vn 0.0024 -0.0166 -0.9999
vn 0.0024 -0.0166 -0.9999
vn 0.0024 -0.0166 -0.9999
vn 0.0024 -0.0166 -0.9999
vn 0.0024 -0.0166 -0.9999
vn 0.0024 -0.0166 -0.9999
vn 0.0024 -0.0166 -0.9999
vn 0.0024 -0.0166 -0.9999
vn 0.0024 -0.0166 -0.9999
vn 0.0024 -0.0166 -0.9999
# 60 vertex normals

vt 0.3742 0.3896 0.0000
vt 0.3742 0.0215 0.0000
vt 0.2481 0.3896 0.0000
vt 0.2473 0.0215 0.0000
vt 0.2013 0.6624 0.0000
vt 0.2570 0.5669 0.0000
vt 0.3684 0.5669 0.0000
vt 0.4241 0.6624 0.0000
vt 0.3684 0.7579 0.0000
vt 0.2570 0.7579 0.0000
vt 0.2481 0.3896 0.0000
vt 0.2473 0.0215 0.0000
vt 0.3742 0.3896 0.0000
vt 0.3742 0.0215 0.0000
vt 0.2481 0.3896 0.0000
vt 0.2473 0.0215 0.0000
vt 0.3742 0.3896 0.0000
vt 0.3742 0.0215 0.0000
# 18 texture coords

g RGD33_Frag_Sleeve
usemtl Standard_1
s 1
f 37/41/169 38/42/170 39/43/171 
f 38/42/172 40/44/173 39/43/174 
f 39/43/175 40/44/176 42/42/177 
f 39/43/178 42/42/179 41/41/180 
f 41/57/181 42/58/182 43/55/183 
f 42/58/184 44/56/185 43/55/186 
f 43/41/187 44/42/188 46/44/189 
f 43/41/190 46/44/191 45/43/192 
f 45/43/193 46/44/194 47/41/195 
f 46/44/196 48/42/197 47/41/198 
f 47/53/199 48/54/200 38/52/201 
f 47/53/202 38/52/203 37/51/204 
s 4
f 48/50/205 40/46/206 38/45/207 
f 46/49/208 44/48/209 42/47/210 
f 48/50/211 42/47/212 40/46/213 
f 48/50/214 46/49/215 42/47/216 
f 37/45/217 39/50/218 47/46/219 
f 41/49/220 43/48/221 45/47/222 
f 39/50/223 41/49/224 47/46/225 
f 41/49/226 45/47/227 47/46/228 
# 20 faces

#
# object RPG_43
#

v  -0.1296 -0.0540 1.2351
v  -0.1482 -0.1040 1.2353
v  -0.2008 -0.1130 1.2353
v  -0.2348 -0.0719 1.2352
v  -0.2163 -0.0219 1.2351
v  -0.1637 -0.0129 1.2350
v  -0.1296 -0.0537 1.3609
v  -0.1482 -0.1037 1.3610
v  -0.2008 -0.1126 1.3610
v  -0.2348 -0.0716 1.3609
v  -0.2163 -0.0215 1.3608
v  -0.1637 -0.0126 1.3607
v  -0.1475 -0.0571 1.2217
v  -0.1406 -0.0558 1.2470
v  -0.1597 -0.0901 1.2218
v  -0.1553 -0.0955 1.2471
v  -0.1945 -0.0961 1.2218
v  -0.1969 -0.1025 1.2471
v  -0.2170 -0.0689 1.2217
v  -0.2239 -0.0700 1.2470
v  -0.2047 -0.0358 1.2216
v  -0.2092 -0.0304 1.2469
v  -0.1700 -0.0299 1.2216
v  -0.1675 -0.0233 1.2469
v  -0.1586 -0.0592 1.1389
v  -0.1406 -0.0559 1.2283
v  -0.1669 -0.0817 1.1389
v  -0.1553 -0.0955 1.2284
v  -0.1906 -0.0857 1.1389
v  -0.1969 -0.1026 1.2284
v  -0.2059 -0.0672 1.1389
v  -0.2239 -0.0701 1.2283
v  -0.1975 -0.0448 1.1388
v  -0.2092 -0.0304 1.2282
v  -0.1739 -0.0407 1.1388
v  -0.1675 -0.0234 1.2282
v  -0.1619 -0.0601 1.0025
v  -0.1619 -0.0593 1.2772
v  -0.1691 -0.0794 1.0026
v  -0.1691 -0.0786 1.2772
v  -0.1894 -0.0828 1.0026
v  -0.1894 -0.0821 1.2772
v  -0.2025 -0.0670 1.0026
v  -0.2025 -0.0662 1.2772
v  -0.1954 -0.0477 1.0025
v  -0.1954 -0.0469 1.2771
v  -0.1751 -0.0442 1.0025
v  -0.1751 -0.0435 1.2771
# 48 vertices

vn -0.0000 -0.0027 -1.0000
vn -0.0000 -0.0027 -1.0000
vn -0.0000 -0.0027 -1.0000
vn -0.0000 -0.0027 -1.0000
vn -0.0000 -0.0027 -1.0000
vn -0.0000 -0.0027 -1.0000
vn -0.0000 -0.0027 -1.0000
vn -0.0000 -0.0027 -1.0000
vn -0.0000 -0.0027 -1.0000
vn -0.0000 -0.0027 -1.0000
vn -0.0000 -0.0027 -1.0000
vn -0.0000 -0.0027 -1.0000
vn 0.9858 0.1677 -0.0005
vn 0.9858 0.1677 -0.0005
vn 0.6381 -0.7699 0.0021
vn 0.9858 0.1677 -0.0005
vn 0.6381 -0.7699 0.0021
vn 0.6381 -0.7699 0.0021
vn 0.6381 -0.7699 0.0021
vn 0.6381 -0.7699 0.0021
vn -0.3477 -0.9376 0.0025
vn 0.6381 -0.7699 0.0021
vn -0.3477 -0.9376 0.0025
vn -0.3477 -0.9376 0.0025
vn -0.3477 -0.9376 0.0025
vn -0.3477 -0.9376 0.0025
vn -0.9858 -0.1677 0.0005
vn -0.3477 -0.9376 0.0025
vn -0.9858 -0.1677 0.0005
vn -0.9858 -0.1677 0.0005
vn -0.9858 -0.1677 0.0005
vn -0.9858 -0.1677 0.0005
vn -0.6381 0.7699 -0.0021
vn -0.9858 -0.1677 0.0005
vn -0.6381 0.7699 -0.0021
vn -0.6381 0.7699 -0.0021
vn -0.6381 0.7699 -0.0021
vn -0.6381 0.7699 -0.0021
vn 0.3477 0.9376 -0.0025
vn -0.6381 0.7699 -0.0021
vn 0.3477 0.9376 -0.0025
vn 0.3477 0.9376 -0.0025
vn 0.3477 0.9376 -0.0025
vn 0.3477 0.9376 -0.0025
vn 0.9858 0.1677 -0.0005
vn 0.3477 0.9376 -0.0025
vn 0.9858 0.1677 -0.0005
vn 0.9858 0.1677 -0.0005
vn 0.0000 0.0027 1.0000
vn 0.0000 0.0027 1.0000
vn 0.0000 0.0027 1.0000
vn 0.0000 0.0027 1.0000
vn 0.0000 0.0027 1.0000
vn 0.0000 0.0027 1.0000
vn 0.0000 0.0027 1.0000
vn 0.0000 0.0027 1.0000
vn 0.0000 0.0027 1.0000
vn 0.0000 0.0027 1.0000
vn 0.0000 0.0027 1.0000
vn 0.0000 0.0027 1.0000
vn 0.9457 0.1601 -0.2828
vn 0.9457 0.1601 -0.2828
vn 0.6122 -0.7394 -0.2804
vn 0.9457 0.1601 -0.2828
vn 0.6122 -0.7394 -0.2804
vn 0.6122 -0.7394 -0.2804
vn 0.6122 -0.7394 -0.2804
vn 0.6122 -0.7394 -0.2804
vn -0.3336 -0.9002 -0.2799
vn 0.6122 -0.7394 -0.2804
vn -0.3336 -0.9002 -0.2799
vn -0.3336 -0.9002 -0.2799
vn -0.3336 -0.9002 -0.2799
vn -0.3336 -0.9002 -0.2799
vn -0.9457 -0.1616 -0.2819
vn -0.3336 -0.9002 -0.2799
vn -0.9457 -0.1616 -0.2819
vn -0.9457 -0.1616 -0.2819
vn -0.9457 -0.1616 -0.2819
vn -0.9457 -0.1616 -0.2819
vn -0.6122 0.7378 -0.2843
vn -0.9457 -0.1616 -0.2819
vn -0.6122 0.7378 -0.2843
vn -0.6122 0.7378 -0.2843
vn -0.6122 0.7378 -0.2843
vn -0.6122 0.7378 -0.2843
vn 0.3336 0.8987 -0.2848
vn -0.6122 0.7378 -0.2843
vn 0.3336 0.8987 -0.2848
vn 0.3336 0.8987 -0.2848
vn 0.3336 0.8987 -0.2848
vn 0.3336 0.8987 -0.2848
vn 0.9457 0.1601 -0.2828
vn 0.3336 0.8987 -0.2848
vn 0.9457 0.1601 -0.2828
vn 0.9457 0.1601 -0.2828
vn 0.9632 0.1633 -0.2135
vn 0.9632 0.1633 -0.2135
vn 0.6235 -0.7528 -0.2111
vn 0.9632 0.1633 -0.2135
vn 0.6235 -0.7528 -0.2111
vn 0.6235 -0.7528 -0.2111
vn 0.6235 -0.7528 -0.2111
vn 0.6235 -0.7528 -0.2111
vn -0.3397 -0.9166 -0.2106
vn 0.6235 -0.7528 -0.2111
vn -0.3397 -0.9166 -0.2106
vn -0.3397 -0.9166 -0.2106
vn -0.3397 -0.9166 -0.2106
vn -0.3397 -0.9166 -0.2106
vn -0.9632 -0.1644 -0.2126
vn -0.3397 -0.9166 -0.2106
vn -0.9632 -0.1644 -0.2126
vn -0.9632 -0.1644 -0.2126
vn -0.9632 -0.1644 -0.2126
vn -0.9632 -0.1644 -0.2126
vn -0.6235 0.7517 -0.2151
vn -0.9632 -0.1644 -0.2126
vn -0.6235 0.7517 -0.2151
vn -0.6235 0.7517 -0.2151
vn -0.6235 0.7517 -0.2151
vn -0.6235 0.7517 -0.2151
vn 0.3397 0.9155 -0.2156
vn -0.6235 0.7517 -0.2151
vn 0.3397 0.9155 -0.2156
vn 0.3397 0.9155 -0.2156
vn 0.3397 0.9155 -0.2156
vn 0.3397 0.9155 -0.2156
vn 0.9632 0.1633 -0.2135
vn 0.3397 0.9155 -0.2156
vn 0.9632 0.1633 -0.2135
vn 0.9632 0.1633 -0.2135
vn -0.0000 -0.0027 -1.0000
vn -0.0000 -0.0027 -1.0000
vn -0.0000 -0.0027 -1.0000
vn -0.0000 -0.0027 -1.0000
vn -0.0000 -0.0027 -1.0000
vn -0.0000 -0.0027 -1.0000
vn -0.0000 -0.0027 -1.0000
vn -0.0000 -0.0027 -1.0000
vn -0.0000 -0.0027 -1.0000
vn -0.0000 -0.0027 -1.0000
vn -0.0000 -0.0027 -1.0000
vn -0.0000 -0.0027 -1.0000
vn 0.0000 0.0027 1.0000
vn 0.0000 0.0027 1.0000
vn 0.0000 0.0027 1.0000
vn 0.0000 0.0027 1.0000
vn 0.0000 0.0027 1.0000
vn 0.0000 0.0027 1.0000
vn 0.0000 0.0027 1.0000
vn 0.0000 0.0027 1.0000
vn 0.0000 0.0027 1.0000
vn 0.0000 0.0027 1.0000
vn 0.0000 0.0027 1.0000
vn 0.0000 0.0027 1.0000
vn 0.9858 0.1677 -0.0005
vn 0.9858 0.1677 -0.0005
vn 0.6381 -0.7699 0.0021
vn 0.9858 0.1677 -0.0005
vn 0.6381 -0.7699 0.0021
vn 0.6381 -0.7699 0.0021
vn 0.6381 -0.7699 0.0021
vn 0.6381 -0.7699 0.0021
vn -0.3477 -0.9376 0.0025
vn 0.6381 -0.7699 0.0021
vn -0.3477 -0.9376 0.0025
vn -0.3477 -0.9376 0.0025
vn -0.3477 -0.9376 0.0025
vn -0.3477 -0.9376 0.0025
vn -0.9858 -0.1677 0.0005
vn -0.3477 -0.9376 0.0025
vn -0.9858 -0.1677 0.0005
vn -0.9858 -0.1677 0.0005
vn -0.9858 -0.1677 0.0005
vn -0.9858 -0.1677 0.0005
vn -0.6381 0.7699 -0.0021
vn -0.9858 -0.1677 0.0005
vn -0.6381 0.7699 -0.0021
vn -0.6381 0.7699 -0.0021
vn -0.6381 0.7699 -0.0021
vn -0.6381 0.7699 -0.0021
vn 0.3477 0.9376 -0.0025
vn -0.6381 0.7699 -0.0021
vn 0.3477 0.9376 -0.0025
vn 0.3477 0.9376 -0.0025
vn 0.3477 0.9376 -0.0025
vn 0.3477 0.9376 -0.0025
vn 0.9858 0.1677 -0.0005
vn 0.3477 0.9376 -0.0025
vn 0.9858 0.1677 -0.0005
vn 0.9858 0.1677 -0.0005
vn -0.0000 -0.0027 -1.0000
vn -0.0000 -0.0027 -1.0000
vn -0.0000 -0.0027 -1.0000
vn -0.0000 -0.0027 -1.0000
vn -0.0000 -0.0027 -1.0000
vn -0.0000 -0.0027 -1.0000
vn -0.0000 -0.0027 -1.0000
vn -0.0000 -0.0027 -1.0000
vn -0.0000 -0.0027 -1.0000
vn -0.0000 -0.0027 -1.0000
vn 0.0000 -0.0027 -1.0000
vn -0.0000 -0.0027 -1.0000
# 204 vertex normals

vt 0.6987 0.0324 0.0000
vt 0.7847 0.0318 0.0000
vt 0.7847 0.3153 0.0000
vt 0.7315 0.3664 0.0000
vt 0.7113 0.3069 0.0000
vt 0.7912 0.3664 0.0000
vt 0.7833 0.3069 0.0000
vt 0.8501 0.3664 0.0000
vt 0.8634 0.3069 0.0000
vt 0.9140 0.3664 0.0000
vt 0.9305 0.3070 0.0000
vt 0.8703 0.0323 0.0000
vt 0.6987 0.3153 0.0000
vt 0.7601 0.6131 0.0000
vt 0.7153 0.3663 0.0000
vt 0.8028 0.6132 0.0000
vt 0.7867 0.3663 0.0000
vt 0.8450 0.6132 0.0000
vt 0.8660 0.3663 0.0000
vt 0.8907 0.6131 0.0000
vt 0.9326 0.3665 0.0000
vt 0.3409 0.8782 0.0000
vt 0.3982 0.7791 0.0000
vt 0.5126 0.7791 0.0000
vt 0.5698 0.8782 0.0000
vt 0.5126 0.9773 0.0000
vt 0.3982 0.9773 0.0000
vt 0.4333 0.1250 0.0000
vt 0.4909 0.2247 0.0000
vt 0.6061 0.2247 0.0000
vt 0.6637 0.1250 0.0000
vt 0.6061 0.0252 0.0000
vt 0.4909 0.0252 0.0000
vt 0.8652 0.9109 0.0000
vt 0.7186 0.3180 0.0000
vt 0.8989 0.9693 0.0000
vt 0.7589 0.3180 0.0000
vt 0.9665 0.9693 0.0000
vt 0.7967 0.3180 0.0000
vt 1.0002 0.9109 0.0000
vt 0.8362 0.3180 0.0000
vt 0.7186 0.9922 0.0000
vt 0.7587 0.9922 0.0000
vt 0.7966 0.9922 0.0000
vt 0.8362 0.9922 0.0000
vt 0.6413 0.3180 0.0000
vt 0.6791 0.3180 0.0000
vt 0.7186 0.3180 0.0000
vt 0.6411 0.9922 0.0000
vt 0.6790 0.9922 0.0000
vt 0.7186 0.9922 0.0000
vt 0.6008 0.3178 0.0000
vt 0.6411 0.3178 0.0000
vt 0.6008 0.9920 0.0000
vt 0.6410 0.9920 0.0000
vt 0.9665 0.8524 0.0000
vt 0.8989 0.8524 0.0000
vt 0.9578 0.0317 0.0000
vt 0.8704 0.3159 0.0000
vt 0.9578 0.3153 0.0000
# 60 texture coords

g RPG_43
usemtl Standard_1
s 1
f 49/80/229 50/85/230 54/81/231 
f 51/84/232 52/83/233 53/82/234 
f 50/85/235 51/84/236 54/81/237 
f 51/84/238 53/82/239 54/81/240 
s 2
f 49/70/241 55/117/242 50/60/243 
f 55/117/244 56/61/245 50/60/246 
f 50/60/247 56/61/248 57/71/249 
f 50/60/250 57/71/251 51/59/252 
f 51/59/253 57/71/254 52/60/255 
f 57/71/256 58/61/257 52/60/258 
f 52/60/259 58/61/260 59/117/261 
f 52/60/262 59/117/263 53/70/264 
f 53/70/265 59/117/266 54/116/267 
f 59/117/268 60/118/269 54/116/270 
f 54/116/271 60/118/272 55/117/273 
f 54/116/274 55/117/275 49/70/276 
s 1
f 60/85/277 56/81/278 55/80/279 
f 59/84/280 58/83/281 57/82/282 
f 60/85/283 57/82/284 56/81/285 
f 60/85/286 59/84/287 57/82/288 
s 2
f 61/62/289 62/63/290 63/64/291 
f 62/63/292 64/65/293 63/64/294 
f 63/64/295 64/65/296 66/67/297 
f 63/64/298 66/67/299 65/66/300 
f 65/66/301 66/67/302 67/68/303 
f 66/67/304 68/69/305 67/68/306 
f 67/68/307 68/69/308 70/67/309 
f 67/68/310 70/67/311 69/66/312 
f 69/66/313 70/67/314 71/64/315 
f 70/67/316 72/65/317 71/64/318 
f 71/64/319 72/65/320 62/63/321 
f 71/64/322 62/63/323 61/62/324 
f 73/72/325 74/73/326 75/74/327 
f 74/73/328 76/75/329 75/74/330 
f 75/74/331 76/75/332 78/77/333 
f 75/74/334 78/77/335 77/76/336 
f 77/76/337 78/77/338 79/78/339 
f 78/77/340 80/79/341 79/78/342 
f 79/78/343 80/79/344 82/77/345 
f 79/78/346 82/77/347 81/76/348 
f 81/76/349 82/77/350 83/74/351 
f 82/77/352 84/75/353 83/74/354 
f 83/74/355 84/75/356 74/73/357 
f 83/74/358 74/73/359 73/72/360 
s 4
f 73/86/361 75/87/362 83/91/363 
f 77/88/364 79/89/365 81/90/366 
f 75/87/367 77/88/368 83/91/369 
f 77/88/370 81/90/371 83/91/372 
s off
f 82/77/373 74/73/374 84/75/375 
f 82/77/376 80/79/377 74/73/378 
f 76/75/379 74/73/380 80/79/381 
f 76/75/382 80/79/383 78/77/384 
s 2
f 85/100/385 86/93/386 87/101/387 
f 86/93/388 88/95/389 87/101/390 
f 87/101/391 88/95/392 90/97/393 
f 87/101/394 90/97/395 89/102/396 
f 89/102/397 90/97/398 91/103/399 
f 90/97/400 92/99/401 91/103/402 
f 91/112/403 92/110/404 94/111/405 
f 91/112/406 94/111/407 93/113/408 
f 93/107/409 94/104/410 95/108/411 
f 94/104/412 96/105/413 95/108/414 
f 95/108/415 96/105/416 86/106/417 
f 95/108/418 86/106/419 85/109/420 
s 4
f 85/92/421 87/94/422 95/115/423 
f 87/94/424 89/96/425 95/115/426 
f 89/96/427 93/114/428 95/115/429 
f 89/96/430 91/98/431 93/114/432 
# 68 faces

