# 3ds Max Wavefront OBJ Exporter v0.97b - (c)2007 guruware
# File Created: 19.02.2012 02:58:24

#
# object 231_cmder_hatch
#

v  -19.5943 286.0489 13.2121
v  -20.7236 286.0489 16.5311
v  -20.7236 286.0489 47.8744
v  -18.3891 286.0489 54.3410
v  -16.7728 286.0489 12.3891
v  -12.2508 286.0489 56.3288
v  18.0774 286.0489 56.3288
v  27.2309 286.0489 12.3891
v  37.2608 286.0489 36.6421
v  37.2608 286.0489 41.4112
v  -27.7236 283.7666 47.8744
v  -27.7236 283.7666 16.5311
v  -26.5943 283.7666 13.2121
v  -25.3891 283.7666 54.3410
v  -23.7728 283.7666 12.3891
v  -19.2508 283.7666 56.3288
v  11.0774 283.7666 56.3288
v  20.2309 283.7666 12.3891
v  30.2608 283.7666 36.6421
v  30.2608 283.7666 41.4112
# 20 vertices

vn 0.0000 1.0000 -0.0000
vn 0.0000 -1.0000 -0.0000
vn -0.2094 0.9773 0.0332
vn -0.2089 0.9750 0.0754
vn -0.2093 0.9770 0.0414
vn -0.2090 0.9753 -0.0711
vn -0.2094 0.9773 -0.0315
vn -0.2094 0.9771 -0.0389
vn -0.1759 0.8210 0.5432
vn -0.1686 0.7868 0.5938
vn -0.0210 0.0979 0.9950
vn -0.1627 0.7593 -0.6301
vn -0.1702 0.7942 -0.5834
vn -0.0190 0.0888 -0.9959
vn 0.0000 0.0000 -1.0000
vn 0.0438 -0.2046 0.9779
vn 0.1972 -0.9204 0.3375
vn 0.2023 -0.9441 0.2602
vn 0.2095 -0.9778 -0.0000
vn 0.2093 -0.9767 -0.0479
vn 0.2094 -0.9771 -0.0372
vn 0.2087 -0.9742 -0.0863
# 22 vertex normals

vt 0.5374 0.4635 0.0000
vt 0.5386 0.4671 0.0000
vt 0.5386 0.5016 0.0000
vt 0.5361 0.5087 0.0000
vt 0.5343 0.4626 0.0000
vt 0.5293 0.5109 0.0000
vt 0.4960 0.5109 0.0000
vt 0.4859 0.4626 0.0000
vt 0.4749 0.4892 0.0000
vt 0.4749 0.4945 0.0000
vt 0.5386 0.4210 0.0000
vt 0.5386 0.4555 0.0000
vt 0.5374 0.4591 0.0000
vt 0.5361 0.4139 0.0000
vt 0.5343 0.4600 0.0000
vt 0.5293 0.4117 0.0000
vt 0.4960 0.4117 0.0000
vt 0.4859 0.4600 0.0000
vt 0.4749 0.4334 0.0000
vt 0.4749 0.4281 0.0000
vt 0.5410 0.5024 0.0000
vt 0.5384 0.5095 0.0000
vt 0.5398 0.4626 0.0000
vt 0.5410 0.4663 0.0000
vt 0.5411 0.4671 0.0000
vt 0.5411 0.5016 0.0000
vt 0.5364 0.5134 0.0000
vt 0.5293 0.5134 0.0000
vt 0.5364 0.5109 0.0000
vt 0.5375 0.4600 0.0000
vt 0.5375 0.4626 0.0000
vt 0.4960 0.5134 0.0000
vt 0.4944 0.5129 0.0000
vt 0.4733 0.4965 0.0000
vt 0.4724 0.4945 0.0000
vt 0.4724 0.4892 0.0000
vt 0.4725 0.4883 0.0000
vt 0.4836 0.4616 0.0000
# 38 texture coords

g 231_cmder_hatch
s 1
f 1/1/1 2/2/1 3/3/1 4/4/1 
f 5/5/1 1/1/1 4/4/1 6/6/1 
f 5/5/1 6/6/1 7/7/1 8/8/1 
f 9/9/1 8/8/1 7/7/1 10/10/1 
f 11/11/2 12/12/2 13/13/2 14/14/2 
f 14/14/2 13/13/2 15/15/2 16/16/2 
f 17/17/2 16/16/2 15/15/2 18/18/2 
f 17/17/2 18/18/2 19/19/2 20/20/2 
s 2
f 11/21/3 14/22/4 4/4/4 3/3/5 
f 13/23/6 12/24/7 2/2/8 1/1/6 
f 12/25/7 11/26/3 3/3/5 2/2/8 
s 4
f 14/27/9 16/28/10 6/6/11 4/29/9 
f 15/15/12 13/30/13 1/31/13 5/5/14 
f 18/18/15 15/15/12 5/5/14 8/8/15 
f 16/28/10 17/32/16 7/7/17 6/6/11 
f 17/33/16 20/34/18 10/10/18 7/7/17 
s 2
f 20/35/19 19/36/20 9/9/21 10/10/19 
f 19/37/20 18/38/22 8/8/22 9/9/21 
# 18 polygons

#
# object 231_turret
#

v  -50.6990 285.7403 4.5128
v  36.6910 285.7403 4.5128
v  61.7610 228.9504 -28.7871
v  -75.7790 228.9504 -28.7871
v  87.2510 228.9503 64.4729
v  55.2309 285.7403 64.4729
v  38.4610 268.7603 139.2628
v  58.1310 228.9503 146.6929
v  -69.2490 285.7403 64.4728
v  -101.2590 228.9503 64.4730
v  -72.1490 228.9503 146.6928
v  -52.4690 268.7603 139.2628
v  -53.0390 256.0702 127.3328
v  -53.0390 237.2203 127.3328
v  38.9910 237.2203 127.3328
v  38.9910 256.0702 127.3328
v  37.9710 258.3403 141.2029
v  34.6610 264.0803 140.1428
v  39.3110 240.3003 144.5728
v  -48.6890 264.0803 140.1428
v  -53.3590 240.3003 144.5728
v  -52.0190 258.3403 141.2028
v  -47.7590 262.9202 127.3328
v  33.7310 262.9202 127.3328
v  -8.1826 261.3185 48.7006
v  16.1458 261.3185 48.7006
v  21.7875 261.3185 20.7967
v  -8.1826 261.3185 20.7967
v  29.3374 261.3185 38.6862
v  -21.6509 285.4804 11.4316
v  -21.6509 285.4804 57.3398
v  27.6567 285.4804 11.4316
v  18.3747 285.4804 57.3398
v  40.0780 285.4804 40.8638
# 34 vertices

vn 0.0000 0.5058 -0.8626
vn 0.8331 0.4684 0.2942
vn 0.8209 0.5115 -0.2540
vn 0.8377 0.4906 -0.2401
vn 0.8475 0.4777 -0.2315
vn 0.8351 0.4938 -0.2422
vn 0.0000 1.0000 -0.0000
vn -0.8331 0.4684 0.2942
vn -0.8475 0.4777 -0.2315
vn -0.8376 0.4906 -0.2401
vn -0.8208 0.5116 -0.2541
vn -0.8351 0.4939 -0.2423
vn 0.0000 0.0000 1.0000
vn 0.0000 0.9752 0.2214
vn 0.0000 -1.0000 -0.0000
vn -0.0006 0.1831 0.9831
vn 0.0000 0.1836 0.9830
vn 0.0000 0.1831 0.9831
vn 0.0003 0.1834 0.9830
vn -0.0001 0.1831 0.9831
vn -0.9992 -0.0378 -0.0157
vn -0.8274 -0.5574 0.0692
vn 0.0000 -0.9959 0.0904
vn 0.8265 -0.5587 0.0692
vn 0.9992 -0.0379 -0.0158
vn 0.0000 0.9844 -0.1760
vn 0.4029 0.7816 -0.4762
vn -0.2080 0.7673 -0.6066
vn -0.3638 0.7571 0.5426
vn 0.4035 0.7878 0.4654
vn -0.6404 0.7467 -0.1800
vn 0.6059 0.5577 0.5673
vn 0.6151 0.5462 -0.5686
vn -0.5004 0.4159 0.7594
vn -0.2952 0.3457 -0.8907
vn -0.8819 0.4126 -0.2281
# 36 vertex normals

vt 0.3035 0.0918 0.0000
vt 0.1942 0.0918 0.0000
vt 0.1628 0.0095 0.0000
vt 0.3349 0.0095 0.0000
vt 0.0930 0.1909 0.0000
vt 0.1710 0.1669 0.0000
vt 0.1920 0.2628 0.0000
vt 0.1418 0.2885 0.0000
vt 0.1590 0.0892 0.0000
vt 0.0726 0.0716 0.0000
vt 0.3267 0.1669 0.0000
vt 0.4047 0.1909 0.0000
vt 0.3559 0.2885 0.0000
vt 0.3057 0.2628 0.0000
vt 0.3388 0.0893 0.0000
vt 0.4251 0.0717 0.0000
vt 0.2956 0.2810 0.0000
vt 0.2957 0.2887 0.0000
vt 0.2020 0.2887 0.0000
vt 0.2022 0.2810 0.0000
vt 0.1537 0.3000 0.0000
vt 0.1547 0.3485 0.0000
vt 0.1096 0.3227 0.0000
vt 0.1177 0.3000 0.0000
vt 0.1618 0.3227 0.0000
vt 0.1167 0.3485 0.0000
vt 0.1926 0.2761 0.0000
vt 0.1674 0.3134 0.0000
vt 0.1967 0.2687 0.0000
vt 0.1909 0.2990 0.0000
vt 0.3010 0.2688 0.0000
vt 0.3303 0.3134 0.0000
vt 0.3068 0.2990 0.0000
vt 0.3051 0.2761 0.0000
vt 0.2930 0.2799 0.0000
vt 0.2048 0.2799 0.0000
vt 0.2636 0.7768 0.0000
vt 0.2450 0.7768 0.0000
vt 0.2407 0.7554 0.0000
vt 0.2636 0.7554 0.0000
vt 0.2349 0.7691 0.0000
vt 0.2848 0.7483 0.0000
vt 0.2848 0.7834 0.0000
vt 0.2362 0.7356 0.0000
vt 0.2739 0.7356 0.0000
vt 0.2739 0.7964 0.0000
vt 0.2433 0.7964 0.0000
vt 0.2149 0.7658 0.0000
vt 0.2244 0.7433 0.0000
vt 0.2353 0.7939 0.0000
vt 0.2187 0.7813 0.0000
# 51 texture coords

g 231_turret
s off
f 21/39/23 22/40/23 23/41/23 24/42/23 
f 25/43/24 26/44/24 27/45/24 28/46/24 
s 2
f 22/47/25 26/44/26 25/43/27 23/48/28 
s off
f 29/49/29 26/44/29 22/40/29 21/39/29 
f 30/50/30 31/51/30 32/52/30 29/49/30 
s 2
f 30/50/31 29/49/32 21/53/33 24/54/34 
s 1
f 33/55/35 34/56/35 35/57/35 36/58/35 
s off
f 29/49/36 32/52/36 27/45/36 26/44/36 
f 31/59/37 24/60/37 25/61/37 28/62/37 
f 31/59/37 30/63/37 24/60/37 
f 23/64/37 25/61/37 24/60/37 
f 37/65/38 28/66/38 27/45/38 38/67/38 
f 28/66/39 37/65/39 39/68/39 
f 27/45/40 32/52/40 40/69/40 38/67/40 
f 32/52/41 31/70/41 41/71/41 42/72/41 
f 32/52/42 42/72/42 40/69/42 
f 41/71/39 31/70/39 28/66/39 39/68/39 
s 1
f 43/73/35 33/55/35 36/58/35 44/74/35 
s 2
f 36/58/43 35/57/43 39/68/43 37/65/43 
f 44/74/44 36/58/44 37/65/44 38/67/44 
s 4
f 44/74/45 38/67/45 40/69/45 43/73/45 
s 2
f 43/73/46 40/69/46 42/72/46 33/55/46 
f 33/55/47 42/72/47 41/71/47 34/56/47 
s 4
f 34/56/48 41/71/48 39/68/48 35/57/48 
s 1
f 45/75/49 46/76/50 47/77/51 48/78/52 
f 46/76/50 49/79/53 47/77/51 
f 45/75/49 48/78/52 50/80/54 51/81/55 
f 48/78/52 47/77/51 52/82/56 50/83/54 
f 46/76/50 45/75/49 51/84/55 53/85/57 
f 47/77/51 49/79/53 54/86/58 52/87/56 
f 49/79/53 46/76/50 53/88/57 54/89/58 
# 26 polygons - 5 triangles

